{"title":"ROH.2014.04.18.Future.Of.Honor.One.PPV.x264-BALLBUSTER.mp4","uid":11376672,"size":1367400516,"categoryP":"video","categoryS":"tv_shows","magnet":"?xt=urn:btih:210c7b95deede98cc5779d75696ecd3df093095f&amp;dn=ROH.2014.04.18.Future.Of.Honor.One.PPV.x264-BALLBUSTER.mp4&amp;tr=udp%3A%2F%2Ftracker.openbittorrent.com%3A80&amp;tr=udp%3A%2F%2Fopen.demonii.com%3A1337&amp;tr=udp%3A%2F%2Ftracker.coppersurfer.tk%3A6969&amp;tr=udp%3A%2F%2Fexodus.desync.com%3A6969","seeders":0,"leechers":1,"uploader":"qtleewest","files":-1,"time":1415152466,"description":"ROH.2014.04.18.Future.Of.Honor.One.PPV.x264-BALLBUSTER\n\nVideo \nID                                      : 1 \nFormat                                  : AVC \nFormat/Info                              : Advanced Video Codec \nFormat profile                          : &lt;a class=&quot;__cf_email__&quot; href=&quot;/cdn-cgi/l/email-protection&quot; data-cfemail=&quot;591438303719156d7769&quot;&gt;[email&amp;#160;protected]&lt;/a&gt;&lt;script cf-hash='f9e31' type=&quot;text/javascript&quot;&gt;\n/* &lt;![CDATA[ */!function(){try{var t=&quot;currentScript&quot;in document?document.currentScript:function(){for(var t=document.getElementsByTagName(&quot;script&quot;),e=t.length;e--;)if(t[e].getAttribute(&quot;cf-hash&quot;))return t[e]}();if(t&amp;&amp;t.previousSibling){var e,r,n,i,c=t.previousSibling,a=c.getAttribute(&quot;data-cfemail&quot;);if(a){for(e=&quot;&quot;,r=parseInt(a.substr(0,2),16),n=2;a.length-n;n+=2)i=parseInt(a.substr(n,2),16)^r,e+=String.fromCharCode(i);e=document.createTextNode(e),c.parentNode.replaceChild(e,c)}}}catch(u){}}();/* ]]&gt; */&lt;/script&gt; \nFormat settings, CABAC                  : Yes \nFormat settings, ReFrames                : 4 frames \nCodec ID                                : avc1 \nCodec ID/Info                            : Advanced Video Coding \nDuration                                : 2h 12mn \nBit rate                                : 1 243 Kbps \nWidth                                    : 704 pixels \nHeight                                  : 400 pixels \nDisplay aspect ratio                    : 16:9 \nFrame rate mode                          : Constant \nFrame rate                              : 30.000 fps \nColor space                              : YUV \nChroma subsampling                      : 4:2:0 \nBit depth                                : 8 bits \nScan type                                : Progressive \nBits/(Pixel*Frame)                      : 0.147 \nStream size                              : 1.15 GiB (90%) \nWriting library                          : x264 core 142 r2409 d6b4e63 \n\nAudio \nID                                      : 2 \nFormat                                  : AAC \nFormat/Info                              : Advanced Audio Codec \nFormat profile                          : LC \nCodec ID                                : 40 \nDuration                                : 2h 12mn \nBit rate mode                            : Variable \nBit rate                                : 128 Kbps \nChannel count                            : 2 channels \nChannel positions                        : Front: L R \nSampling rate                            : 44.1 KHz \nCompression mode                        : Lossy \nStream size                              : 121 MiB","torrent":{"xt":"urn:btih:210c7b95deede98cc5779d75696ecd3df093095f","amp;dn":"ROH.2014.04.18.Future.Of.Honor.One.PPV.x264-BALLBUSTER.mp4","amp;tr":["udp%3A%2F%2Ftracker.openbittorrent.com%3A80","udp%3A%2F%2Fopen.demonii.com%3A1337","udp%3A%2F%2Ftracker.coppersurfer.tk%3A6969","udp%3A%2F%2Fexodus.desync.com%3A6969"],"infoHash":"210c7b95deede98cc5779d75696ecd3df093095f","infoHashBuffer":{"type":"Buffer","data":[33,12,123,149,222,237,233,140,197,119,157,117,105,110,205,61,240,147,9,95]},"announce":[],"urlList":[]}}